<svg width="32" height="32" viewBox="0 0 32 32" fill="none" xmlns="http://www.w3.org/2000/svg">
<g clip-path="url(#clip0_185_17)">
<path d="M13.8142 0.0327925C11.0613 0.408011 8.45459 1.49753 6.25349 3.19295C6.12648 3.2892 6.02176 3.41175 5.94651 3.55222C5.87126 3.69269 5.82726 3.84776 5.8175 4.00681C5.80775 4.16587 5.83248 4.32515 5.89001 4.47376C5.94753 4.62238 6.03648 4.7568 6.15078 4.86784L14.2092 13.3845C14.3091 13.4824 14.4356 13.5486 14.5729 13.575C14.7102 13.6013 14.8523 13.5866 14.9813 13.5327C15.1103 13.4787 15.2206 13.3879 15.2982 13.2716C15.3759 13.1553 15.4175 13.0187 15.418 12.8789L15.0782 1.14675C15.0784 0.987321 15.0446 0.829689 14.979 0.684358C14.9135 0.539027 14.8177 0.409336 14.6981 0.303929C14.5785 0.198522 14.4378 0.119818 14.2854 0.0730654C14.1329 0.0263124 13.9723 0.0125831 13.8142 0.0327925Z" fill="#222831"/>
<path d="M17.788 13.3844L25.8464 4.8441C25.9607 4.73306 26.0497 4.59863 26.1072 4.45002C26.1647 4.30141 26.1894 4.14212 26.1797 3.98307C26.1699 3.82401 26.1259 3.66894 26.0507 3.52847C25.9754 3.388 25.8707 3.26545 25.7437 3.16921C23.5426 1.47379 20.9359 0.384268 18.183 0.00904981C18.0249 -0.0111596 17.8642 0.00256974 17.7118 0.0493228C17.5594 0.0960758 17.4187 0.174779 17.2991 0.280186C17.1795 0.385594 17.0837 0.515283 17.0181 0.660614C16.9526 0.805945 16.9188 0.963578 16.9189 1.12301L16.5792 12.8788C16.5796 13.0186 16.6213 13.1553 16.699 13.2716C16.7766 13.3878 16.8869 13.4787 17.0159 13.5326C17.1449 13.5866 17.2869 13.6013 17.4243 13.5749C17.5616 13.5486 17.6881 13.4823 17.788 13.3844Z" fill="#222831"/>
<path d="M19.1154 15.4147L30.8475 15.075C31.0069 15.0752 31.1645 15.0414 31.3099 14.9758C31.4552 14.9103 31.5849 14.8145 31.6903 14.6949C31.7957 14.5753 31.8744 14.4346 31.9212 14.2821C31.9679 14.1297 31.9816 13.9691 31.9614 13.8109C31.583 11.0589 30.4938 8.45302 28.8013 6.25026C28.7012 6.13139 28.5775 6.03461 28.4381 5.96604C28.2987 5.89747 28.1465 5.85861 27.9913 5.85193C27.8361 5.84525 27.6811 5.87088 27.5363 5.92721C27.3915 5.98354 27.26 6.06933 27.1501 6.17915L18.6098 14.206C18.5119 14.3058 18.4456 14.4323 18.4192 14.5697C18.3929 14.707 18.4076 14.8491 18.4616 14.9781C18.5155 15.1071 18.6063 15.2173 18.7226 15.295C18.8389 15.3727 18.9755 15.4143 19.1154 15.4147Z" fill="#222831"/>
<path d="M17.788 18.6065C17.6881 18.5086 17.5616 18.4424 17.4243 18.416C17.2869 18.3896 17.1449 18.4044 17.0159 18.4583C16.8869 18.5123 16.7766 18.6031 16.699 18.7194C16.6213 18.8357 16.5796 18.9723 16.5792 19.1121L16.9189 30.8521C16.9186 31.0113 16.9524 31.1687 17.018 31.3137C17.0836 31.4587 17.1796 31.5879 17.2994 31.6927C17.4191 31.7976 17.56 31.8755 17.7124 31.9213C17.8648 31.9671 18.0253 31.9797 18.183 31.9582C20.935 31.5798 23.5409 30.4906 25.7437 28.798C25.8698 28.7003 25.9736 28.5767 26.0481 28.4356C26.1226 28.2945 26.1662 28.1392 26.1759 27.9799C26.1857 27.8206 26.1613 27.6611 26.1045 27.512C26.0476 27.3629 25.9597 27.2277 25.8464 27.1153L17.788 18.6065Z" fill="#222831"/>
<path d="M30.8475 16.9159L19.1154 16.5762C18.9755 16.5766 18.8389 16.6182 18.7226 16.6959C18.6063 16.7736 18.5155 16.8838 18.4616 17.0128C18.4076 17.1418 18.3929 17.2839 18.4192 17.4212C18.4456 17.5586 18.5119 17.6851 18.6098 17.7849L27.1501 25.8433C27.2625 25.9566 27.3978 26.0446 27.5469 26.1014C27.696 26.1582 27.8555 26.1826 28.0147 26.1729C28.174 26.1632 28.3294 26.1196 28.4704 26.045C28.6115 25.9705 28.7351 25.8667 28.8329 25.7406C30.5254 23.5379 31.6146 20.932 31.993 18.18C32.0137 18.0191 31.9992 17.8557 31.9506 17.7011C31.902 17.5464 31.8205 17.4041 31.7116 17.2839C31.6027 17.1638 31.4691 17.0687 31.3199 17.0051C31.1707 16.9416 31.0096 16.9111 30.8475 16.9159Z" fill="#222831"/>
<path d="M12.8819 16.5762L1.14191 16.9159C0.982756 16.9156 0.825378 16.9494 0.680377 17.015C0.535376 17.0806 0.40612 17.1765 0.301315 17.2963C0.196509 17.4161 0.118587 17.5569 0.0727959 17.7094C0.0270051 17.8618 0.0144091 18.0223 0.0358562 18.18C0.414279 20.932 1.50347 23.5379 3.19602 25.7407C3.29381 25.8668 3.41737 25.9705 3.55845 26.0451C3.69954 26.1196 3.8549 26.1632 4.01417 26.1729C4.17343 26.1826 4.33294 26.1583 4.48204 26.1014C4.63114 26.0446 4.76641 25.9566 4.87881 25.8434L13.4191 17.785C13.5191 17.6832 13.5862 17.5537 13.6116 17.4133C13.6371 17.273 13.6197 17.1282 13.5617 16.9978C13.5038 16.8675 13.408 16.7575 13.2867 16.6823C13.1655 16.6071 13.0244 16.5702 12.8819 16.5762Z" fill="#222831"/>
<path d="M1.14189 15.0751L12.8819 15.4148C13.0217 15.4144 13.1583 15.3728 13.2746 15.2951C13.3909 15.2174 13.4817 15.1072 13.5357 14.9782C13.5897 14.8492 13.6044 14.7071 13.578 14.5698C13.5517 14.4325 13.4854 14.306 13.3875 14.2061L4.84718 6.17928C4.73478 6.06602 4.59952 5.97804 4.45041 5.92121C4.30131 5.86439 4.1418 5.84002 3.98254 5.84974C3.82327 5.85946 3.66791 5.90304 3.52682 5.97758C3.38574 6.05212 3.26218 6.15589 3.16439 6.28198C1.47184 8.48475 0.382652 11.0906 0.004229 13.8427C-0.012728 14.0006 0.00429037 14.1604 0.0541445 14.3112C0.103999 14.462 0.185534 14.6004 0.293281 14.7172C0.401027 14.8339 0.532492 14.9262 0.678854 14.988C0.825217 15.0497 0.983092 15.0794 1.14189 15.0751Z" fill="#222831"/>
<path d="M14.2091 18.6066L6.15072 27.1469C6.0361 27.2577 5.94642 27.3916 5.88762 27.5398C5.82883 27.688 5.80229 27.8469 5.80977 28.0062C5.81724 28.1654 5.85856 28.3212 5.93097 28.4632C6.00339 28.6052 6.10523 28.7301 6.22972 28.8297C8.43249 30.5222 11.0384 31.6114 13.7904 31.9899C13.9481 32.0113 14.1086 31.9987 14.261 31.9529C14.4134 31.9071 14.5543 31.8292 14.6741 31.7244C14.7938 31.6196 14.8898 31.4903 14.9554 31.3453C15.021 31.2003 15.0548 31.043 15.0545 30.8838L15.3942 19.1438C15.3956 19.0059 15.3569 18.8706 15.2828 18.7543C15.2087 18.6381 15.1024 18.5458 14.9768 18.4889C14.8512 18.432 14.7118 18.4128 14.5755 18.4337C14.4392 18.4546 14.3119 18.5146 14.2091 18.6066Z" fill="#222831"/>
</g>
<defs>
<clipPath id="clip0_185_17">
<rect width="32" height="32" fill="white"/>
</clipPath>
</defs>
</svg>
