<svg width="25" height="25" viewBox="0 0 25 25" fill="none" xmlns="http://www.w3.org/2000/svg">
<path d="M10.7924 0.0274549C8.64197 0.320551 6.6058 1.17161 4.88645 2.49597C4.78724 2.57115 4.70544 2.66687 4.64666 2.7766C4.58788 2.88633 4.5535 3.00746 4.54589 3.1317C4.53827 3.25595 4.55759 3.38037 4.60252 3.49645C4.64745 3.61254 4.71694 3.71754 4.80622 3.80428L11.1009 10.4569C11.1789 10.5334 11.2778 10.5852 11.385 10.6057C11.4923 10.6263 11.6033 10.6148 11.7041 10.5727C11.8048 10.5305 11.8909 10.4596 11.9516 10.3687C12.0123 10.2779 12.0448 10.1712 12.0451 10.062L11.7798 0.897605C11.7799 0.77307 11.7535 0.649938 11.7023 0.536415C11.6511 0.422893 11.5763 0.321586 11.4828 0.239249C11.3894 0.156912 11.2795 0.0954339 11.1604 0.0589135C11.0414 0.0223931 10.9159 0.0116686 10.7924 0.0274549Z" fill="#222831"/>
<path d="M13.8965 10.4569L20.1912 3.78572C20.2805 3.69899 20.35 3.59398 20.3949 3.4779C20.4399 3.36181 20.4592 3.23739 20.4516 3.11315C20.4439 2.9889 20.4096 2.86777 20.3508 2.75804C20.292 2.64832 20.2102 2.55259 20.111 2.47741C18.3916 1.15306 16.3555 0.301996 14.2051 0.00890018C14.0815 -0.00688607 13.9561 0.00383836 13.837 0.0403588C13.7179 0.0768792 13.608 0.138357 13.5146 0.220694C13.4212 0.303032 13.3464 0.404337 13.2952 0.51786C13.244 0.631383 13.2175 0.754516 13.2177 0.879051L12.9523 10.0619C12.9526 10.1712 12.9852 10.2779 13.0458 10.3687C13.1065 10.4595 13.1926 10.5305 13.2934 10.5726C13.3942 10.6148 13.5051 10.6263 13.6124 10.6057C13.7197 10.5851 13.8185 10.5333 13.8965 10.4569Z" fill="#222831"/>
<path d="M14.9333 12.0429L24.0977 11.7775C24.2222 11.7777 24.3453 11.7513 24.4589 11.7001C24.5724 11.6489 24.6737 11.574 24.756 11.4806C24.8384 11.3872 24.8998 11.2773 24.9364 11.1582C24.9729 11.0391 24.9836 10.9137 24.9678 10.7901C24.6722 8.64043 23.8214 6.60488 22.4993 4.88422C22.4211 4.79137 22.3245 4.71577 22.2156 4.66221C22.1067 4.60865 21.9879 4.5783 21.8666 4.57308C21.7453 4.56786 21.6243 4.58788 21.5112 4.63188C21.3981 4.67588 21.2954 4.7429 21.2095 4.82868L14.5383 11.0987C14.4619 11.1767 14.4101 11.2755 14.3895 11.3828C14.3689 11.4901 14.3804 11.6011 14.4226 11.7018C14.4648 11.8026 14.5357 11.8887 14.6265 11.9494C14.7174 12.01 14.8241 12.0426 14.9333 12.0429Z" fill="#222831"/>
<path d="M13.8965 14.5361C13.8185 14.4596 13.7197 14.4079 13.6124 14.3873C13.5051 14.3667 13.3942 14.3782 13.2934 14.4203C13.1926 14.4625 13.1065 14.5334 13.0458 14.6243C12.9852 14.7151 12.9526 14.8218 12.9523 14.9311L13.2177 24.1016C13.2174 24.2259 13.2438 24.3488 13.2951 24.4621C13.3463 24.5754 13.4213 24.6763 13.5148 24.7582C13.6084 24.8401 13.7184 24.9009 13.8375 24.9367C13.9565 24.9725 14.0819 24.9823 14.2051 24.9656C16.3548 24.67 18.3903 23.8192 20.111 22.497C20.2095 22.4207 20.2905 22.3241 20.3488 22.2139C20.407 22.1037 20.441 21.9824 20.4486 21.858C20.4562 21.7336 20.4372 21.609 20.3928 21.4925C20.3484 21.376 20.2797 21.2704 20.1912 21.1826L13.8965 14.5361Z" fill="#222831"/>
<path d="M24.0977 13.2154L14.9333 12.9501C14.8241 12.9504 14.7174 12.9829 14.6265 13.0436C14.5357 13.1043 14.4648 13.1904 14.4226 13.2912C14.3804 13.3919 14.3689 13.5029 14.3895 13.6102C14.4101 13.7174 14.4619 13.8163 14.5383 13.8943L21.2095 20.189C21.2973 20.2775 21.403 20.3462 21.5194 20.3906C21.6359 20.435 21.7605 20.454 21.8849 20.4464C22.0093 20.4388 22.1307 20.4048 22.2409 20.3465C22.3511 20.2883 22.4476 20.2073 22.524 20.1088C23.8461 18.3881 24.6969 16.3526 24.9925 14.2028C25.0086 14.0772 24.9973 13.9496 24.9593 13.8288C24.9214 13.7079 24.8577 13.5968 24.7726 13.5029C24.6876 13.4091 24.5832 13.3348 24.4667 13.2851C24.3502 13.2355 24.2243 13.2117 24.0977 13.2154Z" fill="#222831"/>
<path d="M10.0642 12.9501L0.893629 13.2154C0.769306 13.2152 0.646373 13.2416 0.533108 13.2928C0.419843 13.3441 0.318876 13.419 0.237009 13.5126C0.155141 13.6062 0.0942736 13.7162 0.0585048 13.8352C0.022736 13.9543 0.0128968 14.0797 0.0296499 14.2029C0.325249 16.3526 1.17605 18.3881 2.49816 20.1088C2.57455 20.2073 2.67107 20.2883 2.78127 20.3465C2.89148 20.4048 3.01284 20.4388 3.13725 20.4464C3.26166 20.454 3.38625 20.435 3.50272 20.3906C3.61919 20.3462 3.72485 20.2775 3.81265 20.189L10.4838 13.8943C10.5619 13.8148 10.6143 13.7137 10.6342 13.604C10.654 13.4944 10.6404 13.3813 10.5952 13.2794C10.5499 13.1776 10.4751 13.0917 10.3804 13.033C10.2857 12.9743 10.1755 12.9454 10.0642 12.9501Z" fill="#222831"/>
<path d="M0.893636 11.7775L10.0642 12.0429C10.1734 12.0426 10.2801 12.01 10.3709 11.9494C10.4618 11.8887 10.5327 11.8026 10.5749 11.7018C10.617 11.6011 10.6285 11.4901 10.6079 11.3828C10.5874 11.2755 10.5356 11.1767 10.4591 11.0987L3.78797 4.82868C3.70017 4.74021 3.59451 4.67149 3.47804 4.6271C3.36157 4.58271 3.23698 4.56368 3.11257 4.57127C2.98816 4.57886 2.8668 4.61291 2.75659 4.67113C2.64639 4.72935 2.54987 4.81042 2.47348 4.90891C1.15137 6.62957 0.300571 8.66511 0.00497211 10.8148C-0.00827364 10.9382 0.00502004 11.063 0.0439628 11.1808C0.0829056 11.2986 0.146596 11.4067 0.230761 11.4979C0.314925 11.5891 0.417617 11.6612 0.531946 11.7094C0.646274 11.7577 0.769596 11.7809 0.893636 11.7775Z" fill="#222831"/>
<path d="M11.1009 14.5361L4.80622 21.2073C4.71669 21.2938 4.64663 21.3984 4.60071 21.5142C4.55478 21.6299 4.53405 21.7541 4.53989 21.8785C4.54573 22.0028 4.578 22.1245 4.63457 22.2355C4.69113 22.3464 4.77069 22.444 4.86793 22.5218C6.58859 23.8439 8.62413 24.6947 10.7738 24.9903C10.897 25.007 11.0224 24.9972 11.1415 24.9614C11.2605 24.9256 11.3705 24.8648 11.4641 24.7829C11.5577 24.701 11.6326 24.6001 11.6839 24.4868C11.7351 24.3735 11.7615 24.2506 11.7613 24.1263L12.0266 14.9558C12.0277 14.8481 11.9975 14.7424 11.9396 14.6515C11.8817 14.5607 11.7987 14.4887 11.7006 14.4442C11.6025 14.3997 11.4935 14.3847 11.3871 14.4011C11.2806 14.4174 11.1812 14.4643 11.1009 14.5361Z" fill="#222831"/>
</svg>
