<svg width="50" height="50" viewBox="0 0 50 50" fill="none" xmlns="http://www.w3.org/2000/svg">
<path d="M26.5 7C26.5 6.17157 25.8284 5.5 25 5.5C24.1716 5.5 23.5 6.17157 23.5 7L26.5 7ZM23.9393 44.0607C24.5251 44.6464 25.4749 44.6464 26.0607 44.0607L35.6066 34.5147C36.1924 33.9289 36.1924 32.9792 35.6066 32.3934C35.0208 31.8076 34.0711 31.8076 33.4853 32.3934L25 40.8787L16.5147 32.3934C15.9289 31.8076 14.9792 31.8076 14.3934 32.3934C13.8076 32.9792 13.8076 33.9289 14.3934 34.5147L23.9393 44.0607ZM23.5 7L23.5 43L26.5 43L26.5 7L23.5 7Z" fill="#69696F"/>
</svg>
