<svg width="50" height="50" viewBox="0 0 50 50" fill="none" xmlns="http://www.w3.org/2000/svg">
<path d="M27 2C27 0.89543 26.1046 -4.82823e-08 25 0C23.8954 4.82823e-08 23 0.895431 23 2L27 2ZM23.5858 49.4142C24.3668 50.1953 25.6332 50.1953 26.4142 49.4142L39.1421 36.6863C39.9232 35.9052 39.9232 34.6389 39.1421 33.8579C38.3611 33.0768 37.0948 33.0768 36.3137 33.8579L25 45.1716L13.6863 33.8579C12.9052 33.0768 11.6389 33.0768 10.8579 33.8579C10.0768 34.6389 10.0768 35.9052 10.8579 36.6863L23.5858 49.4142ZM23 2L23 48L27 48L27 2L23 2Z" fill="#69696F"/>
</svg>
