<svg width="25" height="25" viewBox="0 0 25 25" fill="none" xmlns="http://www.w3.org/2000/svg">
<g clip-path="url(#clip0_210_401)">
<rect width="25" height="25" fill="white"/>
<mask id="mask0_210_401" style="mask-type:luminance" maskUnits="userSpaceOnUse" x="-4" y="-4" width="33" height="33">
<path d="M29 -4H-4V29H29V-4Z" fill="white"/>
</mask>
<g mask="url(#mask0_210_401)">
<path fill-rule="evenodd" clip-rule="evenodd" d="M12.4982 0.703817C9.36915 0.703817 6.36829 1.94681 4.15575 4.15935C1.9432 6.3719 0.700216 9.37275 0.700216 12.5018C0.700216 12.6198 0.604528 12.7155 0.486491 12.7155C0.368454 12.7155 0.272766 12.6198 0.272766 12.5018C0.272766 9.25939 1.56079 6.14981 3.8535 3.8571C6.1462 1.56439 9.25579 0.276367 12.4982 0.276367C12.6162 0.276367 12.7119 0.372055 12.7119 0.490092C12.7119 0.608129 12.6162 0.703817 12.4982 0.703817Z" fill="#0E2439"/>
<path fill-rule="evenodd" clip-rule="evenodd" d="M1.70858 17.7932C1.8136 17.7393 1.94242 17.7807 1.99632 17.8857C3.11981 20.0746 4.89784 21.8587 7.08286 22.9898C7.18769 23.044 7.22868 23.173 7.17442 23.2778C7.12016 23.3826 6.99119 23.4236 6.88637 23.3694C4.62239 22.1975 2.78012 20.3489 1.61604 18.0809C1.56214 17.9759 1.60357 17.8471 1.70858 17.7932Z" fill="#0E2439"/>
<path fill-rule="evenodd" clip-rule="evenodd" d="M24.5136 12.2881C24.6316 12.2881 24.7273 12.3838 24.7272 12.5019C24.7263 15.7446 23.4375 18.8541 21.1442 21.1467C18.8509 23.4393 15.741 24.7272 12.4983 24.7272C12.3802 24.7272 12.2845 24.6315 12.2845 24.5135C12.2845 24.3955 12.3802 24.2998 12.4983 24.2998C15.6276 24.2998 18.6289 23.0569 20.842 20.8444C23.0551 18.632 24.2989 15.6311 24.2998 12.5017C24.2998 12.3837 24.3955 12.2881 24.5136 12.2881Z" fill="#0E2439"/>
<path fill-rule="evenodd" clip-rule="evenodd" d="M17.7717 1.70177C17.8254 1.59666 17.9541 1.55498 18.0592 1.60868C20.2998 2.75338 22.1345 4.55893 23.3149 6.78087C23.3703 6.88511 23.3307 7.01451 23.2264 7.06989C23.1222 7.12526 22.9928 7.08565 22.9374 6.98141C21.7981 4.83685 20.0273 3.09417 17.8648 1.98933C17.7597 1.93563 17.718 1.80688 17.7717 1.70177Z" fill="#0E2439"/>
<path fill-rule="evenodd" clip-rule="evenodd" d="M6.83603 6.53734C6.91952 6.62077 6.91957 6.75609 6.83614 6.83959C5.33514 8.34167 4.49196 10.3783 4.49196 12.5018C4.49196 14.6253 5.33514 16.6619 6.83614 18.164C6.91957 18.2474 6.91952 18.3828 6.83603 18.4662C6.75253 18.5496 6.61721 18.5496 6.53378 18.4661C4.95269 16.8839 4.06451 14.7386 4.06451 12.5018C4.06451 10.265 4.95269 8.11968 6.53378 6.53745C6.61721 6.45395 6.75253 6.4539 6.83603 6.53734Z" fill="#0E2439"/>
<path fill-rule="evenodd" clip-rule="evenodd" d="M9.76954 20.2616C9.80537 20.1491 9.92559 20.087 10.0381 20.1228C11.6304 20.6301 13.341 20.6301 14.9334 20.1228C15.0459 20.087 15.1661 20.1491 15.2019 20.2616C15.2377 20.374 15.1756 20.4943 15.0631 20.5301C13.3864 21.0642 11.5851 21.0642 9.90831 20.5301C9.79584 20.4943 9.73371 20.374 9.76954 20.2616Z" fill="#0E2439"/>
<path fill-rule="evenodd" clip-rule="evenodd" d="M18.1603 6.53734C18.2438 6.4539 18.3791 6.45395 18.4626 6.53745C20.0437 8.11968 20.9318 10.265 20.9318 12.5018C20.9318 14.7386 20.0437 16.8839 18.4626 18.4661C18.3791 18.5496 18.2438 18.5496 18.1603 18.4662C18.0768 18.3828 18.0768 18.2474 18.1602 18.164C19.6612 16.6619 20.5044 14.6253 20.5044 12.5018C20.5044 10.3783 19.6612 8.34167 18.1602 6.83959C18.0768 6.75609 18.0768 6.62077 18.1603 6.53734Z" fill="#0E2439"/>
<path fill-rule="evenodd" clip-rule="evenodd" d="M14.8609 4.83866C13.2838 4.35686 11.5966 4.37263 10.0288 4.88382C9.91653 4.92042 9.7959 4.8591 9.7593 4.74688C9.72271 4.63466 9.78403 4.51402 9.89625 4.47743C11.5476 3.939 13.3247 3.92239 14.9858 4.42986C15.0987 4.46435 15.1623 4.58382 15.1278 4.69671C15.0933 4.80959 14.9738 4.87315 14.8609 4.83866Z" fill="#0E2439"/>
<path fill-rule="evenodd" clip-rule="evenodd" d="M9.35503 15.3427C9.4386 15.2593 9.57392 15.2595 9.65728 15.3431C10.03 15.7168 10.4728 16.0132 10.9603 16.2155C11.4478 16.4178 11.9704 16.5219 12.4982 16.5219C13.026 16.5219 13.5486 16.4178 14.0361 16.2155C14.5236 16.0132 14.9664 15.7168 15.3391 15.3431C15.4224 15.2595 15.5578 15.2593 15.6413 15.3427C15.7249 15.426 15.7251 15.5614 15.6417 15.6449C15.2293 16.0584 14.7393 16.3865 14.1999 16.6103C13.6605 16.8342 13.0822 16.9494 12.4982 16.9494C11.9142 16.9494 11.3359 16.8342 10.7965 16.6103C10.257 16.3865 9.76707 16.0584 9.35464 15.6449C9.27128 15.5614 9.27146 15.426 9.35503 15.3427Z" fill="#0E2439"/>
<path fill-rule="evenodd" clip-rule="evenodd" d="M16.4673 11.0106C16.5799 10.9749 16.7 11.0372 16.7356 11.1497C17.0155 12.033 17.0155 12.9812 16.7356 13.8645C16.7 13.977 16.5799 14.0393 16.4673 14.0037C16.3548 13.968 16.2925 13.8479 16.3282 13.7354C16.5814 12.9361 16.5814 12.0781 16.3282 11.2789C16.2925 11.1663 16.3548 11.0462 16.4673 11.0106Z" fill="#0E2439"/>
<path fill-rule="evenodd" clip-rule="evenodd" d="M12.4982 8.48159C11.9704 8.48159 11.4478 8.58572 10.9603 8.78801C10.4728 8.9903 10.03 9.28678 9.65728 9.66047C9.57392 9.74404 9.4386 9.74422 9.35503 9.66086C9.27146 9.5775 9.27128 9.44218 9.35464 9.35861C9.76707 8.94511 10.257 8.61705 10.7965 8.3932C11.3359 8.16936 11.9142 8.05414 12.4982 8.05414C13.0822 8.05414 13.6605 8.16936 14.1999 8.3932C14.7393 8.61704 15.2293 8.94511 15.6417 9.35861C15.7251 9.44218 15.7249 9.5775 15.6413 9.66086C15.5578 9.74422 15.4224 9.74404 15.3391 9.66047C14.9664 9.28678 14.5236 8.9903 14.0361 8.78801C13.5486 8.58572 13.026 8.48159 12.4982 8.48159Z" fill="#0E2439"/>
<path fill-rule="evenodd" clip-rule="evenodd" d="M8.53606 11.0533C8.64862 11.0889 8.71104 11.209 8.67549 11.3215C8.42664 12.1094 8.42664 12.9549 8.67549 13.7428C8.71104 13.8553 8.64862 13.9754 8.53606 14.0109C8.4235 14.0465 8.30344 13.9841 8.26789 13.8715C7.99257 12.9998 7.99257 12.0645 8.26789 11.1928C8.30344 11.0802 8.4235 11.0178 8.53606 11.0533Z" fill="#0E2439"/>
</g>
</g>
<defs>
<clipPath id="clip0_210_401">
<rect width="25" height="25" fill="white"/>
</clipPath>
</defs>
</svg>
