<svg width="46" height="41" viewBox="0 0 46 41" fill="none" xmlns="http://www.w3.org/2000/svg">
<rect width="45.7674" height="41" rx="10" fill="#FEFEFD"/>
<path d="M22.8869 24.6743V32.1989C22.8865 32.2426 22.8723 32.2852 22.8462 32.3214C22.8201 32.3575 22.7833 32.3856 22.7403 32.4021C22.6973 32.4187 22.6501 32.4229 22.6046 32.4142C22.5591 32.4056 22.5174 32.3845 22.4845 32.3536L15.0692 25.3956C14.8138 25.156 14.5544 24.9194 14.3047 24.6735C14.3014 22.0259 14.3014 19.378 14.3047 16.7299V16.6294H22.8869L14.8804 9.12257C14.8329 9.07843 14.8005 9.02198 14.7872 8.96042C14.7739 8.89886 14.7805 8.83498 14.8059 8.77692C14.8314 8.71886 14.8746 8.66926 14.9302 8.63444C14.9857 8.59961 15.051 8.58115 15.1177 8.58139H31.465V16.6217H22.8869L30.8927 24.127C30.9401 24.1711 30.9725 24.2274 30.9858 24.2889C30.9991 24.3504 30.9926 24.4142 30.9673 24.4722C30.9419 24.5303 30.8988 24.5799 30.8434 24.6148C30.788 24.6496 30.7228 24.6682 30.6562 24.6681L22.8869 24.6743Z" fill="#222222" stroke="#0E2646" stroke-width="0.76" stroke-miterlimit="10"/>
</svg>
