<svg width="25" height="19" viewBox="0 0 25 19" fill="none" xmlns="http://www.w3.org/2000/svg">
<path d="M16.2879 8.42329V10.4914H8.68506V8.42329H16.2879ZM8.63095 18.6652C8.63272 18.7441 8.66628 18.8193 8.72444 18.8745C8.7826 18.9297 8.86074 18.9606 8.9421 18.9606H19.237C19.3177 18.9606 19.3952 18.9295 19.4522 18.8741C19.5093 18.8187 19.5414 18.7435 19.5414 18.6652V13.6952H8.63095V18.6652ZM24.6956 5.26538H19.5752V13.6952H24.6956C24.7763 13.6952 24.8538 13.6641 24.9108 13.6087C24.9679 13.5533 25 13.4781 25 13.3998V5.56082C25 5.48246 24.9679 5.40731 24.9108 5.35191C24.8538 5.2965 24.7763 5.26538 24.6956 5.26538ZM19.237 0.0131309H5.70887C5.62815 0.0131309 5.55073 0.0442572 5.49364 0.0996627C5.43656 0.155068 5.40449 0.230214 5.40449 0.30857V5.27851H0.304384C0.223656 5.27851 0.146234 5.30963 0.0891515 5.36504C0.0320686 5.42045 0 5.49559 0 5.57395V18.7046C0 18.7829 0.0320686 18.8581 0.0891515 18.9135C0.146234 18.9689 0.223656 19 0.304384 19H5.41126V5.27194H19.5414V0.295439C19.5414 0.217083 19.5093 0.141937 19.4522 0.0865318C19.3952 0.0311263 19.3177 0 19.237 0V0.0131309Z" fill="url(#paint0_linear_322_3)"/>
<defs>
<linearGradient id="paint0_linear_322_3" x1="3.71347" y1="6.34865" x2="26.7634" y2="18.9994" gradientUnits="userSpaceOnUse">
<stop stop-color="#793FDF"/>
<stop offset="0.87" stop-color="#97FFF4"/>
</linearGradient>
</defs>
</svg>
