<svg width="138" height="26" viewBox="0 0 138 26" fill="none" xmlns="http://www.w3.org/2000/svg">
<path d="M133.316 20.9043V6.56383H135.231V20.9043H133.316ZM130.827 12.5426V10.7979H137.721V12.5426H130.827Z" fill="#69696F"/>
<path d="M125.896 21.117C125.329 21.117 124.79 21.0461 124.279 20.9043C123.782 20.7482 123.321 20.5355 122.896 20.266C122.47 19.9823 122.102 19.6489 121.79 19.266L123.024 18.0319C123.392 18.4858 123.818 18.8262 124.3 19.0532C124.782 19.266 125.321 19.3723 125.917 19.3723C126.513 19.3723 126.974 19.2731 127.3 19.0745C127.626 18.8617 127.79 18.5709 127.79 18.2021C127.79 17.8333 127.655 17.5496 127.385 17.3511C127.13 17.1383 126.797 16.9681 126.385 16.8404C125.974 16.6986 125.534 16.5638 125.066 16.4362C124.612 16.2943 124.18 16.117 123.768 15.9043C123.357 15.6915 123.016 15.4007 122.747 15.0319C122.492 14.6631 122.364 14.1738 122.364 13.5638C122.364 12.9539 122.513 12.4291 122.811 11.9894C123.109 11.5355 123.52 11.1879 124.045 10.9468C124.584 10.7057 125.229 10.5851 125.981 10.5851C126.775 10.5851 127.477 10.7269 128.087 11.0106C128.712 11.2801 129.222 11.6915 129.619 12.2447L128.385 13.4787C128.102 13.1099 127.747 12.8262 127.321 12.6277C126.91 12.4291 126.442 12.3298 125.917 12.3298C125.364 12.3298 124.938 12.4291 124.641 12.6277C124.357 12.8121 124.215 13.0745 124.215 13.4149C124.215 13.7553 124.343 14.0177 124.598 14.2021C124.853 14.3865 125.187 14.5426 125.598 14.6702C126.024 14.7979 126.463 14.9326 126.917 15.0745C127.371 15.2021 127.804 15.3794 128.215 15.6064C128.626 15.8333 128.96 16.1383 129.215 16.5213C129.485 16.9043 129.619 17.4078 129.619 18.0319C129.619 18.9823 129.279 19.734 128.598 20.2872C127.931 20.8404 127.031 21.117 125.896 21.117Z" fill="#69696F"/>
<path d="M115.957 21.117C114.95 21.117 114.042 20.8901 113.233 20.4362C112.425 19.9681 111.787 19.3369 111.319 18.5426C110.851 17.7482 110.616 16.8475 110.616 15.8404C110.616 14.8475 110.843 13.9539 111.297 13.1596C111.765 12.3652 112.39 11.7411 113.17 11.2872C113.964 10.8191 114.85 10.5851 115.829 10.5851C116.765 10.5851 117.588 10.7979 118.297 11.2234C119.021 11.6489 119.581 12.2376 119.978 12.9894C120.39 13.7411 120.595 14.5922 120.595 15.5426C120.595 15.6844 120.588 15.8404 120.574 16.0106C120.56 16.1667 120.531 16.3511 120.489 16.5638H111.957V14.9681H119.468L118.765 15.5851C118.765 14.9043 118.645 14.3298 118.404 13.8617C118.163 13.3794 117.822 13.0106 117.382 12.7553C116.943 12.4858 116.411 12.3511 115.787 12.3511C115.134 12.3511 114.56 12.4929 114.063 12.7766C113.567 13.0603 113.184 13.4574 112.914 13.9681C112.645 14.4787 112.51 15.0816 112.51 15.7766C112.51 16.4858 112.652 17.1099 112.936 17.6489C113.219 18.1738 113.624 18.5851 114.148 18.883C114.673 19.1667 115.276 19.3085 115.957 19.3085C116.524 19.3085 117.042 19.2092 117.51 19.0106C117.992 18.8121 118.404 18.5142 118.744 18.117L119.978 19.3723C119.496 19.9397 118.9 20.3723 118.191 20.6702C117.496 20.9681 116.751 21.117 115.957 21.117Z" fill="#69696F"/>
<path d="M103.069 20.9043V10.7979H104.984V20.9043H103.069ZM104.984 15.1383L104.26 14.8191C104.26 13.5284 104.558 12.5 105.154 11.734C105.75 10.9681 106.608 10.5851 107.728 10.5851C108.239 10.5851 108.7 10.6773 109.111 10.8617C109.523 11.0319 109.906 11.3227 110.26 11.734L109.005 13.0319C108.792 12.805 108.558 12.6418 108.303 12.5426C108.047 12.4433 107.75 12.3936 107.409 12.3936C106.7 12.3936 106.118 12.6206 105.664 13.0745C105.211 13.5284 104.984 14.2163 104.984 15.1383Z" fill="#69696F"/>
<path d="M95.6346 21.117C94.6417 21.117 93.7481 20.883 92.9538 20.4149C92.1594 19.9468 91.5282 19.3156 91.0602 18.5213C90.5921 17.7128 90.358 16.8121 90.358 15.8191C90.358 14.8404 90.5921 13.961 91.0602 13.1809C91.5282 12.3865 92.1594 11.7553 92.9538 11.2872C93.7481 10.8191 94.6417 10.5851 95.6346 10.5851C96.6134 10.5851 97.4999 10.8191 98.2942 11.2872C99.1027 11.7411 99.741 12.3652 100.209 13.1596C100.677 13.9539 100.911 14.8404 100.911 15.8191C100.911 16.8121 100.677 17.7128 100.209 18.5213C99.741 19.3156 99.1027 19.9468 98.2942 20.4149C97.4999 20.883 96.6134 21.117 95.6346 21.117ZM95.6346 19.266C96.2729 19.266 96.8403 19.117 97.3368 18.8191C97.8332 18.5213 98.2233 18.117 98.507 17.6064C98.7907 17.0816 98.9325 16.4858 98.9325 15.8191C98.9325 15.1667 98.7836 14.5851 98.4857 14.0745C98.202 13.5638 97.8119 13.1667 97.3155 12.883C96.8332 12.5851 96.2729 12.4362 95.6346 12.4362C94.9963 12.4362 94.429 12.5851 93.9325 12.883C93.436 13.1667 93.046 13.5638 92.7623 14.0745C92.4786 14.5851 92.3368 15.1667 92.3368 15.8191C92.3368 16.4858 92.4786 17.0816 92.7623 17.6064C93.046 18.117 93.436 18.5213 93.9325 18.8191C94.429 19.117 94.9963 19.266 95.6346 19.266Z" fill="#69696F"/>
<path d="M84.5481 20.9043V9.28723C84.5481 8.53546 84.7112 7.88298 85.0374 7.32979C85.3637 6.76241 85.8105 6.3156 86.3779 5.98936C86.9594 5.66312 87.6332 5.5 88.3991 5.5C88.9807 5.5 89.4842 5.59929 89.9098 5.79787C90.3353 5.99645 90.7254 6.28723 91.08 6.67021L89.8247 7.90426C89.6403 7.70567 89.4346 7.55674 89.2077 7.45745C88.9807 7.34397 88.7041 7.28723 88.3779 7.28723C87.7679 7.28723 87.2928 7.46454 86.9523 7.81915C86.6261 8.17376 86.463 8.66312 86.463 9.28723V20.9043H84.5481ZM82.0587 12.5426V10.7979H89.6757V12.5426H82.0587Z" fill="#69696F"/>
<path d="M78.7183 20.9043V15.0106C78.7183 14.2447 78.4771 13.6135 77.9949 13.117C77.5126 12.6206 76.8885 12.3723 76.1225 12.3723C75.6119 12.3723 75.158 12.4858 74.7608 12.7128C74.3637 12.9397 74.0516 13.2518 73.8247 13.6489C73.5977 14.0461 73.4842 14.5 73.4842 15.0106L72.697 14.5638C72.697 13.7979 72.8672 13.117 73.2076 12.5213C73.5481 11.9255 74.0232 11.4574 74.6332 11.117C75.2431 10.7624 75.931 10.5851 76.697 10.5851C77.463 10.5851 78.1367 10.7766 78.7183 11.1596C79.314 11.5426 79.7821 12.0461 80.1225 12.6702C80.463 13.2801 80.6332 13.9326 80.6332 14.6277V20.9043H78.7183ZM71.5693 20.9043V10.7979H73.4842V20.9043H71.5693Z" fill="#69696F"/>
<path d="M58.5056 20.9043L54.5056 10.7979H56.5056L59.3992 18.6702H58.7609L61.6333 10.7979H62.7397L65.612 18.6702H64.9737L67.8673 10.7979H69.8673L65.8886 20.9043H64.7609L61.846 13.266H62.5482L59.612 20.9043H58.5056Z" fill="#69696F"/>
<path d="M48.4689 21.117C47.4759 21.117 46.5823 20.883 45.788 20.4149C44.9937 19.9468 44.3625 19.3156 43.8944 18.5213C43.4263 17.7128 43.1923 16.8121 43.1923 15.8191C43.1923 14.8404 43.4263 13.961 43.8944 13.1809C44.3625 12.3865 44.9937 11.7553 45.788 11.2872C46.5823 10.8191 47.4759 10.5851 48.4689 10.5851C49.4476 10.5851 50.3341 10.8191 51.1284 11.2872C51.9369 11.7411 52.5752 12.3652 53.0433 13.1596C53.5114 13.9539 53.7455 14.8404 53.7455 15.8191C53.7455 16.8121 53.5114 17.7128 53.0433 18.5213C52.5752 19.3156 51.9369 19.9468 51.1284 20.4149C50.3341 20.883 49.4476 21.117 48.4689 21.117ZM48.4689 19.266C49.1072 19.266 49.6745 19.117 50.171 18.8191C50.6674 18.5213 51.0575 18.117 51.3412 17.6064C51.6249 17.0816 51.7667 16.4858 51.7667 15.8191C51.7667 15.1667 51.6178 14.5851 51.3199 14.0745C51.0362 13.5638 50.6462 13.1667 50.1497 12.883C49.6674 12.5851 49.1072 12.4362 48.4689 12.4362C47.8306 12.4362 47.2632 12.5851 46.7667 12.883C46.2703 13.1667 45.8802 13.5638 45.5965 14.0745C45.3128 14.5851 45.171 15.1667 45.171 15.8191C45.171 16.4858 45.3128 17.0816 45.5965 17.6064C45.8802 18.117 46.2703 18.5213 46.7667 18.8191C47.2632 19.117 47.8306 19.266 48.4689 19.266Z" fill="#69696F"/>
<path d="M37.6142 20.9043V6.56383H39.6142V20.9043H37.6142ZM32.5929 7.96808V6.1383H44.6142V7.96808H32.5929Z" fill="#69696F"/>
<mask id="mask0_3_2" style="mask-type:luminance" maskUnits="userSpaceOnUse" x="1" y="1" width="24" height="24">
<path d="M24.1047 18.9819L22.0229 15.3081C21.9964 15.2611 21.9826 15.2079 21.983 15.1538C21.9833 15.0998 21.9979 15.0468 22.0251 15.0001C22.0522 14.9534 22.0912 14.9146 22.138 14.8876C22.1848 14.8606 22.2379 14.8463 22.2919 14.8461H22.4478C22.5022 14.846 22.5556 14.8316 22.6027 14.8043C22.6498 14.7769 22.6888 14.7377 22.7159 14.6905C22.743 14.6433 22.7572 14.5898 22.757 14.5353C22.7568 14.4809 22.7423 14.4275 22.715 14.3804L21.1156 11.6325C21.0882 11.5855 21.0737 11.5321 21.0735 11.4777C21.0734 11.4232 21.0875 11.3697 21.1146 11.3225C21.1417 11.2753 21.1807 11.236 21.2278 11.2087C21.2749 11.1814 21.3283 11.1669 21.3828 11.1668H21.3958C21.4504 11.168 21.5044 11.1547 21.5523 11.1282C21.6001 11.1017 21.6401 11.0631 21.6682 11.0162C21.6963 10.9692 21.7114 10.9157 21.7121 10.861C21.7129 10.8064 21.6991 10.7525 21.6722 10.7048L18.8891 5.62468C18.8621 5.57681 18.8229 5.53697 18.7754 5.50925C18.728 5.48153 18.6741 5.46691 18.6191 5.46691C18.5642 5.46691 18.5102 5.48153 18.4628 5.50925C18.4153 5.53697 18.3761 5.57681 18.3491 5.62468L17.0503 7.89944C17.0235 7.94775 16.9842 7.98801 16.9366 8.01604C16.889 8.04408 16.8347 8.05886 16.7795 8.05886C16.7242 8.05886 16.6699 8.04408 16.6223 8.01604C16.5747 7.98801 16.5354 7.94775 16.5086 7.89944L13.0259 1.50564C12.9987 1.45781 12.9593 1.41804 12.9117 1.39037C12.8641 1.36271 12.8101 1.34814 12.755 1.34814C12.7 1.34814 12.6459 1.36271 12.5984 1.39037C12.5508 1.41804 12.5114 1.45781 12.4841 1.50564L8.95884 7.63967C8.93187 7.68754 8.89266 7.72739 8.84522 7.75511C8.79778 7.78284 8.74382 7.79744 8.68887 7.79744C8.63393 7.79744 8.57997 7.78284 8.53253 7.75511C8.48509 7.72739 8.44588 7.68754 8.41891 7.63967L7.19989 5.37049C7.17292 5.32262 7.13371 5.28278 7.08627 5.25506C7.03883 5.22733 6.98488 5.21271 6.92993 5.21271C6.87498 5.21271 6.82103 5.22733 6.77359 5.25506C6.72615 5.28278 6.68693 5.32262 6.65996 5.37049L3.74138 10.4562C3.71484 10.5033 3.70108 10.5565 3.70146 10.6105C3.70184 10.6646 3.71635 10.7176 3.74355 10.7643C3.77074 10.811 3.80968 10.8498 3.8565 10.8768C3.90331 10.9038 3.95637 10.9181 4.01042 10.9182C4.06485 10.9183 4.11829 10.9328 4.16536 10.9601C4.21243 10.9874 4.25148 11.0267 4.27856 11.0739C4.30565 11.1211 4.31982 11.1746 4.31965 11.229C4.31948 11.2835 4.30498 11.3369 4.2776 11.3839L2.67451 14.1318C2.64713 14.1788 2.63263 14.2323 2.63246 14.2867C2.63229 14.3411 2.64646 14.3946 2.67355 14.4419C2.70063 14.4891 2.73968 14.5283 2.78675 14.5556C2.83383 14.583 2.88726 14.5974 2.94169 14.5975H3.09755C3.15175 14.5973 3.20505 14.6114 3.25212 14.6383C3.29919 14.6651 3.33839 14.7039 3.36581 14.7506C3.39322 14.7974 3.40789 14.8505 3.40836 14.9047C3.40882 14.9589 3.39506 15.0123 3.36844 15.0595L1.2848 18.7333C1.25826 18.7803 1.2445 18.8335 1.24488 18.8876C1.24526 18.9416 1.25977 18.9946 1.28696 19.0413C1.31416 19.088 1.3531 19.1268 1.39991 19.1538C1.44673 19.1808 1.49979 19.1951 1.55384 19.1953H5.09955C5.15359 19.1954 5.20666 19.2097 5.25348 19.2367C5.30029 19.2637 5.33923 19.3025 5.36642 19.3492C5.39362 19.3959 5.40813 19.4489 5.40851 19.5029C5.40889 19.557 5.39513 19.6102 5.36859 19.6573L4.47056 21.2436C4.44403 21.2907 4.43027 21.3439 4.43065 21.398C4.43103 21.452 4.44553 21.505 4.47273 21.5517C4.49993 21.5984 4.53887 21.6372 4.58568 21.6642C4.63249 21.6912 4.68556 21.7055 4.7396 21.7056H10.7085C10.7907 21.7056 10.8695 21.7383 10.9276 21.7964C10.9857 21.8545 11.0184 21.9333 11.0184 22.0155V24.6409C11.0184 24.7226 11.0508 24.801 11.1086 24.8587C11.1663 24.9165 11.2447 24.9489 11.3264 24.9489H14.0965C14.1371 24.9492 14.1774 24.9414 14.2149 24.926C14.2525 24.9107 14.2867 24.888 14.3155 24.8594C14.3443 24.8308 14.3671 24.7967 14.3827 24.7592C14.3983 24.7217 14.4064 24.6815 14.4064 24.6409V22.0099C14.4064 21.9278 14.439 21.849 14.4971 21.7908C14.5552 21.7327 14.634 21.7001 14.7162 21.7001H20.5274C20.5815 21.6999 20.6345 21.6856 20.6813 21.6586C20.7281 21.6316 20.7671 21.5929 20.7943 21.5462C20.8215 21.4995 20.836 21.4465 20.8364 21.3924C20.8367 21.3384 20.823 21.2852 20.7964 21.2381L20.0413 19.9059C20.0148 19.8588 20.001 19.8056 20.0014 19.7516C20.0018 19.6975 20.0163 19.6445 20.0435 19.5978C20.0707 19.5511 20.1096 19.5123 20.1564 19.4853C20.2032 19.4583 20.2563 19.444 20.3103 19.4439H23.8356C23.8897 19.4437 23.9427 19.4294 23.9896 19.4024C24.0364 19.3754 24.0753 19.3367 24.1025 19.29C24.1297 19.2433 24.1442 19.1903 24.1446 19.1362C24.145 19.0822 24.1312 19.029 24.1047 18.9819ZM15.9946 9.72888L15.9779 9.76042L15.9594 9.72888H15.9946Z" fill="white"/>
</mask>
<g mask="url(#mask0_3_2)">
<path d="M25.2383 0.5H0.238281V25.5H25.2383V0.5Z" fill="#26510C"/>
</g>
</svg>
