<svg width="139" height="26" viewBox="0 0 139 26" fill="none" xmlns="http://www.w3.org/2000/svg">
<path d="M133.816 20.9043V6.56383H135.731V20.9043H133.816ZM131.327 12.5426V10.7979H138.221V12.5426H131.327Z" fill="#69696F"/>
<path d="M126.396 21.117C125.829 21.117 125.29 21.0461 124.779 20.9043C124.282 20.7482 123.821 20.5355 123.396 20.266C122.97 19.9823 122.602 19.6489 122.29 19.266L123.524 18.0319C123.892 18.4858 124.318 18.8262 124.8 19.0532C125.282 19.266 125.821 19.3723 126.417 19.3723C127.013 19.3723 127.474 19.2731 127.8 19.0745C128.126 18.8617 128.29 18.5709 128.29 18.2021C128.29 17.8333 128.155 17.5496 127.885 17.3511C127.63 17.1383 127.297 16.9681 126.885 16.8404C126.474 16.6986 126.034 16.5638 125.566 16.4362C125.112 16.2943 124.68 16.117 124.268 15.9043C123.857 15.6915 123.516 15.4007 123.247 15.0319C122.992 14.6631 122.864 14.1738 122.864 13.5638C122.864 12.9539 123.013 12.4291 123.311 11.9894C123.609 11.5355 124.02 11.1879 124.545 10.9468C125.084 10.7057 125.729 10.5851 126.481 10.5851C127.275 10.5851 127.977 10.7269 128.587 11.0106C129.212 11.2801 129.722 11.6915 130.119 12.2447L128.885 13.4787C128.602 13.1099 128.247 12.8262 127.821 12.6277C127.41 12.4291 126.942 12.3298 126.417 12.3298C125.864 12.3298 125.438 12.4291 125.141 12.6277C124.857 12.8121 124.715 13.0745 124.715 13.4149C124.715 13.7553 124.843 14.0177 125.098 14.2021C125.353 14.3865 125.687 14.5426 126.098 14.6702C126.524 14.7979 126.963 14.9326 127.417 15.0745C127.871 15.2021 128.304 15.3794 128.715 15.6064C129.126 15.8333 129.46 16.1383 129.715 16.5213C129.985 16.9043 130.119 17.4078 130.119 18.0319C130.119 18.9823 129.779 19.734 129.098 20.2872C128.431 20.8404 127.531 21.117 126.396 21.117Z" fill="#69696F"/>
<path d="M116.457 21.117C115.45 21.117 114.542 20.8901 113.733 20.4362C112.925 19.9681 112.287 19.3369 111.819 18.5426C111.351 17.7482 111.116 16.8475 111.116 15.8404C111.116 14.8475 111.343 13.9539 111.797 13.1596C112.265 12.3652 112.89 11.7411 113.67 11.2872C114.464 10.8191 115.35 10.5851 116.329 10.5851C117.265 10.5851 118.088 10.7979 118.797 11.2234C119.521 11.6489 120.081 12.2376 120.478 12.9894C120.89 13.7411 121.095 14.5922 121.095 15.5426C121.095 15.6844 121.088 15.8404 121.074 16.0106C121.06 16.1667 121.031 16.3511 120.989 16.5638H112.457V14.9681H119.968L119.265 15.5851C119.265 14.9043 119.145 14.3298 118.904 13.8617C118.663 13.3794 118.322 13.0106 117.882 12.7553C117.443 12.4858 116.911 12.3511 116.287 12.3511C115.634 12.3511 115.06 12.4929 114.563 12.7766C114.067 13.0603 113.684 13.4574 113.414 13.9681C113.145 14.4787 113.01 15.0816 113.01 15.7766C113.01 16.4858 113.152 17.1099 113.436 17.6489C113.719 18.1738 114.124 18.5851 114.648 18.883C115.173 19.1667 115.776 19.3085 116.457 19.3085C117.024 19.3085 117.542 19.2092 118.01 19.0106C118.492 18.8121 118.904 18.5142 119.244 18.117L120.478 19.3723C119.996 19.9397 119.4 20.3723 118.691 20.6702C117.996 20.9681 117.251 21.117 116.457 21.117Z" fill="#69696F"/>
<path d="M103.569 20.9043V10.7979H105.484V20.9043H103.569ZM105.484 15.1383L104.76 14.8191C104.76 13.5284 105.058 12.5 105.654 11.734C106.25 10.9681 107.108 10.5851 108.228 10.5851C108.739 10.5851 109.2 10.6773 109.611 10.8617C110.023 11.0319 110.406 11.3227 110.76 11.734L109.505 13.0319C109.292 12.805 109.058 12.6418 108.803 12.5426C108.547 12.4433 108.25 12.3936 107.909 12.3936C107.2 12.3936 106.618 12.6206 106.164 13.0745C105.711 13.5284 105.484 14.2163 105.484 15.1383Z" fill="#69696F"/>
<path d="M96.1346 21.117C95.1417 21.117 94.2481 20.883 93.4538 20.4149C92.6594 19.9468 92.0282 19.3156 91.5602 18.5213C91.0921 17.7128 90.858 16.8121 90.858 15.8191C90.858 14.8404 91.0921 13.961 91.5602 13.1809C92.0282 12.3865 92.6594 11.7553 93.4538 11.2872C94.2481 10.8191 95.1417 10.5851 96.1346 10.5851C97.1134 10.5851 97.9999 10.8191 98.7942 11.2872C99.6027 11.7411 100.241 12.3652 100.709 13.1596C101.177 13.9539 101.411 14.8404 101.411 15.8191C101.411 16.8121 101.177 17.7128 100.709 18.5213C100.241 19.3156 99.6027 19.9468 98.7942 20.4149C97.9999 20.883 97.1134 21.117 96.1346 21.117ZM96.1346 19.266C96.7729 19.266 97.3403 19.117 97.8368 18.8191C98.3332 18.5213 98.7233 18.117 99.007 17.6064C99.2907 17.0816 99.4325 16.4858 99.4325 15.8191C99.4325 15.1667 99.2836 14.5851 98.9857 14.0745C98.702 13.5638 98.3119 13.1667 97.8155 12.883C97.3332 12.5851 96.7729 12.4362 96.1346 12.4362C95.4963 12.4362 94.929 12.5851 94.4325 12.883C93.936 13.1667 93.546 13.5638 93.2623 14.0745C92.9786 14.5851 92.8368 15.1667 92.8368 15.8191C92.8368 16.4858 92.9786 17.0816 93.2623 17.6064C93.546 18.117 93.936 18.5213 94.4325 18.8191C94.929 19.117 95.4963 19.266 96.1346 19.266Z" fill="#69696F"/>
<path d="M85.0481 20.9043V9.28723C85.0481 8.53546 85.2112 7.88298 85.5374 7.32979C85.8637 6.76241 86.3105 6.3156 86.8779 5.98936C87.4594 5.66312 88.1332 5.5 88.8991 5.5C89.4807 5.5 89.9842 5.59929 90.4098 5.79787C90.8353 5.99645 91.2254 6.28723 91.58 6.67021L90.3247 7.90426C90.1403 7.70567 89.9346 7.55674 89.7077 7.45745C89.4807 7.34397 89.2041 7.28723 88.8779 7.28723C88.2679 7.28723 87.7928 7.46454 87.4523 7.81915C87.1261 8.17376 86.963 8.66312 86.963 9.28723V20.9043H85.0481ZM82.5587 12.5426V10.7979H90.1757V12.5426H82.5587Z" fill="#69696F"/>
<path d="M79.2183 20.9043V15.0106C79.2183 14.2447 78.9771 13.6135 78.4949 13.117C78.0126 12.6206 77.3885 12.3723 76.6225 12.3723C76.1119 12.3723 75.658 12.4858 75.2608 12.7128C74.8637 12.9397 74.5516 13.2518 74.3247 13.6489C74.0977 14.0461 73.9842 14.5 73.9842 15.0106L73.197 14.5638C73.197 13.7979 73.3672 13.117 73.7076 12.5213C74.0481 11.9255 74.5232 11.4574 75.1332 11.117C75.7431 10.7624 76.431 10.5851 77.197 10.5851C77.963 10.5851 78.6367 10.7766 79.2183 11.1596C79.814 11.5426 80.2821 12.0461 80.6225 12.6702C80.963 13.2801 81.1332 13.9326 81.1332 14.6277V20.9043H79.2183ZM72.0693 20.9043V10.7979H73.9842V20.9043H72.0693Z" fill="#69696F"/>
<path d="M59.0056 20.9043L55.0056 10.7979H57.0056L59.8992 18.6702H59.2609L62.1333 10.7979H63.2397L66.112 18.6702H65.4737L68.3673 10.7979H70.3673L66.3886 20.9043H65.2609L62.346 13.266H63.0482L60.112 20.9043H59.0056Z" fill="#69696F"/>
<path d="M48.9689 21.117C47.9759 21.117 47.0823 20.883 46.288 20.4149C45.4937 19.9468 44.8625 19.3156 44.3944 18.5213C43.9263 17.7128 43.6923 16.8121 43.6923 15.8191C43.6923 14.8404 43.9263 13.961 44.3944 13.1809C44.8625 12.3865 45.4937 11.7553 46.288 11.2872C47.0823 10.8191 47.9759 10.5851 48.9689 10.5851C49.9476 10.5851 50.8341 10.8191 51.6284 11.2872C52.4369 11.7411 53.0752 12.3652 53.5433 13.1596C54.0114 13.9539 54.2455 14.8404 54.2455 15.8191C54.2455 16.8121 54.0114 17.7128 53.5433 18.5213C53.0752 19.3156 52.4369 19.9468 51.6284 20.4149C50.8341 20.883 49.9476 21.117 48.9689 21.117ZM48.9689 19.266C49.6072 19.266 50.1745 19.117 50.671 18.8191C51.1674 18.5213 51.5575 18.117 51.8412 17.6064C52.1249 17.0816 52.2667 16.4858 52.2667 15.8191C52.2667 15.1667 52.1178 14.5851 51.8199 14.0745C51.5362 13.5638 51.1462 13.1667 50.6497 12.883C50.1674 12.5851 49.6072 12.4362 48.9689 12.4362C48.3306 12.4362 47.7632 12.5851 47.2667 12.883C46.7703 13.1667 46.3802 13.5638 46.0965 14.0745C45.8128 14.5851 45.671 15.1667 45.671 15.8191C45.671 16.4858 45.8128 17.0816 46.0965 17.6064C46.3802 18.117 46.7703 18.5213 47.2667 18.8191C47.7632 19.117 48.3306 19.266 48.9689 19.266Z" fill="#69696F"/>
<path d="M38.1142 20.9043V6.56383H40.1142V20.9043H38.1142ZM33.0929 7.96808V6.1383H45.1142V7.96808H33.0929Z" fill="#69696F"/>
<mask id="mask0_3_2" style="mask-type:luminance" maskUnits="userSpaceOnUse" x="1" y="1" width="24" height="24">
<path d="M24.6047 18.9819L22.5229 15.3081C22.4964 15.2611 22.4826 15.2079 22.483 15.1538C22.4833 15.0998 22.4979 15.0468 22.5251 15.0001C22.5522 14.9534 22.5912 14.9146 22.638 14.8876C22.6848 14.8606 22.7379 14.8463 22.7919 14.8461H22.9478C23.0022 14.846 23.0556 14.8316 23.1027 14.8043C23.1498 14.7769 23.1888 14.7377 23.2159 14.6905C23.243 14.6433 23.2572 14.5898 23.257 14.5353C23.2568 14.4809 23.2423 14.4275 23.215 14.3804L21.6156 11.6325C21.5882 11.5855 21.5737 11.5321 21.5735 11.4777C21.5734 11.4232 21.5875 11.3697 21.6146 11.3225C21.6417 11.2753 21.6807 11.236 21.7278 11.2087C21.7749 11.1814 21.8283 11.1669 21.8828 11.1668H21.8958C21.9504 11.168 22.0044 11.1547 22.0523 11.1282C22.1001 11.1017 22.1401 11.0631 22.1682 11.0162C22.1963 10.9692 22.2114 10.9157 22.2121 10.861C22.2128 10.8064 22.1991 10.7525 22.1722 10.7048L19.3891 5.62468C19.3621 5.57681 19.3229 5.53697 19.2755 5.50925C19.228 5.48153 19.1741 5.46691 19.1191 5.46691C19.0642 5.46691 19.0102 5.48153 18.9628 5.50925C18.9153 5.53697 18.8761 5.57681 18.8491 5.62468L17.5503 7.89943C17.5235 7.94775 17.4842 7.98801 17.4366 8.01604C17.389 8.04408 17.3347 8.05886 17.2795 8.05886C17.2242 8.05886 17.1699 8.04408 17.1223 8.01604C17.0747 7.98801 17.0354 7.94775 17.0086 7.89943L13.5259 1.50564C13.4987 1.45781 13.4593 1.41804 13.4117 1.39037C13.3641 1.36271 13.3101 1.34814 13.255 1.34814C13.2 1.34814 13.1459 1.36271 13.0984 1.39037C13.0508 1.41804 13.0114 1.45781 12.9841 1.50564L9.45884 7.63967C9.43187 7.68754 9.39266 7.72739 9.34522 7.75511C9.29778 7.78284 9.24382 7.79744 9.18887 7.79744C9.13393 7.79744 9.07997 7.78284 9.03253 7.75511C8.98509 7.72739 8.94588 7.68754 8.91891 7.63967L7.69989 5.37049C7.67293 5.32262 7.63371 5.28278 7.58627 5.25506C7.53883 5.22733 7.48488 5.21271 7.42993 5.21271C7.37498 5.21271 7.32103 5.22733 7.27359 5.25506C7.22615 5.28278 7.18693 5.32262 7.15996 5.37049L4.24138 10.4562C4.21484 10.5033 4.20108 10.5565 4.20146 10.6105C4.20184 10.6646 4.21635 10.7176 4.24355 10.7643C4.27074 10.811 4.30968 10.8498 4.3565 10.8768C4.40331 10.9038 4.45637 10.9181 4.51042 10.9182C4.56485 10.9183 4.61829 10.9328 4.66536 10.9601C4.71243 10.9874 4.75148 11.0267 4.77856 11.0739C4.80565 11.1211 4.81982 11.1746 4.81965 11.229C4.81948 11.2835 4.80498 11.3369 4.7776 11.3839L3.17451 14.1318C3.14713 14.1788 3.13263 14.2323 3.13246 14.2867C3.13229 14.3411 3.14646 14.3946 3.17355 14.4419C3.20063 14.4891 3.23968 14.5283 3.28675 14.5556C3.33383 14.583 3.38726 14.5974 3.44169 14.5975H3.59755C3.65175 14.5973 3.70505 14.6114 3.75212 14.6383C3.79919 14.6651 3.83839 14.7039 3.86581 14.7506C3.89322 14.7974 3.90789 14.8505 3.90836 14.9047C3.90882 14.9589 3.89506 15.0123 3.86844 15.0595L1.7848 18.7333C1.75826 18.7803 1.7445 18.8335 1.74488 18.8876C1.74526 18.9416 1.75977 18.9946 1.78696 19.0413C1.81416 19.088 1.8531 19.1268 1.89991 19.1538C1.94673 19.1808 1.99979 19.1951 2.05384 19.1953H5.59955C5.65359 19.1954 5.70666 19.2097 5.75348 19.2367C5.80029 19.2637 5.83923 19.3025 5.86642 19.3492C5.89362 19.3959 5.90813 19.4489 5.90851 19.5029C5.90889 19.557 5.89513 19.6102 5.86859 19.6573L4.97056 21.2436C4.94403 21.2907 4.93027 21.3439 4.93065 21.398C4.93103 21.452 4.94553 21.505 4.97273 21.5517C4.99993 21.5984 5.03887 21.6372 5.08568 21.6642C5.13249 21.6912 5.18556 21.7055 5.2396 21.7056H11.2085C11.2907 21.7056 11.3695 21.7383 11.4276 21.7964C11.4857 21.8545 11.5184 21.9333 11.5184 22.0155V24.6409C11.5184 24.7226 11.5508 24.801 11.6086 24.8587C11.6663 24.9165 11.7447 24.9489 11.8264 24.9489H14.5965C14.6371 24.9492 14.6774 24.9414 14.7149 24.926C14.7525 24.9107 14.7867 24.888 14.8155 24.8594C14.8443 24.8308 14.8671 24.7967 14.8827 24.7592C14.8983 24.7217 14.9064 24.6815 14.9064 24.6409V22.0099C14.9064 21.9278 14.939 21.849 14.9971 21.7908C15.0552 21.7327 15.134 21.7001 15.2162 21.7001H21.0274C21.0815 21.6999 21.1345 21.6856 21.1813 21.6586C21.2281 21.6316 21.2671 21.5929 21.2943 21.5462C21.3215 21.4995 21.336 21.4465 21.3364 21.3924C21.3367 21.3384 21.323 21.2852 21.2964 21.2381L20.5413 19.9059C20.5148 19.8588 20.501 19.8056 20.5014 19.7516C20.5018 19.6975 20.5163 19.6445 20.5435 19.5978C20.5707 19.5511 20.6096 19.5123 20.6564 19.4853C20.7032 19.4583 20.7563 19.444 20.8103 19.4439H24.3356C24.3897 19.4437 24.4427 19.4294 24.4896 19.4024C24.5364 19.3754 24.5753 19.3367 24.6025 19.29C24.6297 19.2433 24.6442 19.1903 24.6446 19.1362C24.645 19.0822 24.6312 19.029 24.6047 18.9819ZM16.4946 9.72888L16.4779 9.76042L16.4594 9.72888H16.4946Z" fill="white"/>
</mask>
<g mask="url(#mask0_3_2)">
<path d="M25.7383 0.5H0.738281V25.5H25.7383V0.5Z" fill="#2E670B"/>
</g>
</svg>
