<svg width="527" height="93" viewBox="0 0 527 93" fill="none" xmlns="http://www.w3.org/2000/svg">
<path d="M508.89 76.06V19.8456H516.396V76.06H508.89ZM499.132 43.2821V36.443H526.155V43.2821H499.132Z" fill="#69696F"/>
<path d="M479.802 76.8941C477.578 76.8941 475.465 76.616 473.463 76.06C471.517 75.4484 469.71 74.6143 468.042 73.5579C466.374 72.4458 464.928 71.1392 463.705 69.6379L468.543 64.8004C469.988 66.5797 471.656 67.9142 473.547 68.8038C475.437 69.6379 477.55 70.0549 479.886 70.0549C482.221 70.0549 484.028 69.6657 485.307 68.8873C486.586 68.0532 487.225 66.9133 487.225 65.4677C487.225 64.022 486.697 62.9099 485.64 62.1315C484.64 61.2975 483.333 60.6302 481.72 60.1298C480.108 59.5738 478.384 59.0455 476.549 58.5451C474.77 57.9891 473.074 57.2941 471.462 56.46C469.849 55.626 468.515 54.4861 467.458 53.0404C466.457 51.5948 465.957 49.6765 465.957 47.2855C465.957 44.8946 466.541 42.8373 467.709 41.1136C468.876 39.3343 470.489 37.9721 472.546 37.0268C474.659 36.0816 477.189 35.6089 480.136 35.6089C483.25 35.6089 486.002 36.165 488.393 37.277C490.839 38.3335 492.841 39.946 494.398 42.1145L489.56 46.9519C488.448 45.5063 487.058 44.3942 485.39 43.6158C483.778 42.8373 481.943 42.4481 479.886 42.4481C477.717 42.4481 476.049 42.8373 474.881 43.6158C473.769 44.3386 473.213 45.3672 473.213 46.7017C473.213 48.0362 473.714 49.0648 474.715 49.7877C475.715 50.5105 477.022 51.1221 478.635 51.6226C480.303 52.123 482.026 52.6512 483.806 53.2072C485.585 53.7077 487.281 54.4027 488.893 55.2924C490.506 56.182 491.812 57.3775 492.813 58.8787C493.87 60.38 494.398 62.3539 494.398 64.8004C494.398 68.5258 493.063 71.4728 490.395 73.6413C487.781 75.8098 484.25 76.8941 479.802 76.8941Z" fill="#69696F"/>
<path d="M440.841 76.8941C436.893 76.8941 433.335 76.0044 430.165 74.2251C426.996 72.3902 424.494 69.9159 422.659 66.8021C420.824 63.6884 419.907 60.1576 419.907 56.2098C419.907 52.3176 420.796 48.8146 422.576 45.7009C424.41 42.5871 426.857 40.1406 429.915 38.3613C433.029 36.5264 436.504 35.6089 440.341 35.6089C444.01 35.6089 447.235 36.443 450.016 38.1111C452.851 39.7792 455.048 42.0867 456.605 45.0336C458.217 47.9806 459.023 51.3168 459.023 55.0421C459.023 55.5982 458.995 56.2098 458.94 56.877C458.884 57.4887 458.773 58.2115 458.606 59.0455H425.161V52.7902H454.603L451.85 55.209C451.85 52.54 451.378 50.2881 450.433 48.4532C449.487 46.5627 448.153 45.117 446.429 44.1162C444.706 43.0597 442.62 42.5315 440.174 42.5315C437.616 42.5315 435.364 43.0875 433.418 44.1996C431.472 45.3116 429.971 46.8685 428.914 48.8702C427.858 50.8719 427.33 53.235 427.33 55.9596C427.33 58.7397 427.886 61.1863 428.998 63.2992C430.11 65.3565 431.694 66.969 433.752 68.1366C435.809 69.2487 438.172 69.8047 440.841 69.8047C443.065 69.8047 445.095 69.4155 446.93 68.637C448.82 67.8586 450.433 66.6909 451.767 65.1341L456.605 70.0549C454.714 72.279 452.379 73.9749 449.599 75.1426C446.874 76.3102 443.955 76.8941 440.841 76.8941Z" fill="#69696F"/>
<path d="M390.32 76.06V36.443H397.826V76.06H390.32ZM397.826 53.4575L394.99 52.2064C394.99 47.1465 396.158 43.1153 398.493 40.1128C400.829 37.1102 404.193 35.6089 408.585 35.6089C410.587 35.6089 412.394 35.9704 414.006 36.6932C415.619 37.3604 417.12 38.5003 418.51 40.1128L413.589 45.2004C412.755 44.3108 411.838 43.6714 410.837 43.2821C409.836 42.8929 408.669 42.6983 407.334 42.6983C404.554 42.6983 402.274 43.588 400.495 45.3672C398.716 47.1465 397.826 49.8433 397.826 53.4575Z" fill="#69696F"/>
<path d="M361.178 76.8941C357.286 76.8941 353.783 75.9766 350.669 74.1417C347.555 72.3068 345.081 69.8325 343.246 66.7187C341.411 63.5494 340.494 60.0186 340.494 56.1264C340.494 52.2898 341.411 48.8424 343.246 45.7843C345.081 42.6705 347.555 40.1962 350.669 38.3613C353.783 36.5264 357.286 35.6089 361.178 35.6089C365.015 35.6089 368.49 36.5264 371.604 38.3613C374.773 40.1406 377.275 42.5871 379.11 45.7009C380.945 48.8146 381.862 52.2898 381.862 56.1264C381.862 60.0186 380.945 63.5494 379.11 66.7187C377.275 69.8325 374.773 72.3068 371.604 74.1417C368.49 75.9766 365.015 76.8941 361.178 76.8941ZM361.178 69.6379C363.68 69.6379 365.904 69.0541 367.85 67.8864C369.796 66.7187 371.326 65.1341 372.438 63.1324C373.55 61.075 374.106 58.7397 374.106 56.1264C374.106 53.5687 373.522 51.2889 372.354 49.2872C371.242 47.2855 369.713 45.7287 367.767 44.6166C365.877 43.4489 363.68 42.8651 361.178 42.8651C358.676 42.8651 356.452 43.4489 354.506 44.6166C352.56 45.7287 351.031 47.2855 349.918 49.2872C348.806 51.2889 348.25 53.5687 348.25 56.1264C348.25 58.7397 348.806 61.075 349.918 63.1324C351.031 65.1341 352.56 66.7187 354.506 67.8864C356.452 69.0541 358.676 69.6379 361.178 69.6379Z" fill="#69696F"/>
<path d="M317.719 76.0599V30.5212C317.719 27.5743 318.358 25.0165 319.637 22.848C320.916 20.6239 322.667 18.8724 324.891 17.5936C327.171 16.3147 329.812 15.6753 332.815 15.6753C335.094 15.6753 337.068 16.0645 338.736 16.8429C340.405 17.6214 341.934 18.7612 343.324 20.2625L338.403 25.0999C337.68 24.3215 336.874 23.7377 335.984 23.3485C335.095 22.9036 334.01 22.6812 332.731 22.6812C330.34 22.6812 328.478 23.3763 327.143 24.7663C325.864 26.1564 325.225 28.0747 325.225 30.5212V76.0599H317.719ZM307.96 43.2821V36.4429H337.819V43.2821H307.96Z" fill="#69696F"/>
<path d="M294.866 76.06V52.957C294.866 49.9545 293.921 47.4802 292.03 45.5341C290.14 43.588 287.693 42.6149 284.691 42.6149C282.689 42.6149 280.91 43.0597 279.353 43.9494C277.796 44.839 276.573 46.0623 275.683 47.6192C274.793 49.176 274.349 50.9553 274.349 52.957L271.263 51.2055C271.263 48.203 271.93 45.5341 273.264 43.1987C274.599 40.8634 276.462 39.0285 278.852 37.6941C281.243 36.304 283.94 35.6089 286.943 35.6089C289.945 35.6089 292.586 36.3596 294.866 37.8609C297.201 39.3621 299.036 41.336 300.371 43.7826C301.705 46.1735 302.372 48.7312 302.372 51.4558V76.06H294.866ZM266.842 76.06V36.443H274.349V76.06H266.842Z" fill="#69696F"/>
<path d="M215.632 76.06L199.952 36.443H207.792L219.135 67.3025H216.633L227.893 36.443H232.23L243.489 67.3025H240.987L252.33 36.443H260.17L244.573 76.06H240.153L228.727 46.1179H231.479L219.969 76.06H215.632Z" fill="#69696F"/>
<path d="M176.288 76.8941C172.396 76.8941 168.893 75.9766 165.779 74.1417C162.665 72.3068 160.191 69.8325 158.356 66.7187C156.521 63.5494 155.604 60.0186 155.604 56.1264C155.604 52.2898 156.521 48.8424 158.356 45.7843C160.191 42.6705 162.665 40.1962 165.779 38.3613C168.893 36.5264 172.396 35.6089 176.288 35.6089C180.125 35.6089 183.6 36.5264 186.714 38.3613C189.883 40.1406 192.385 42.5871 194.22 45.7009C196.055 48.8146 196.972 52.2898 196.972 56.1264C196.972 60.0186 196.055 63.5494 194.22 66.7187C192.385 69.8325 189.883 72.3068 186.714 74.1417C183.6 75.9766 180.125 76.8941 176.288 76.8941ZM176.288 69.6379C178.79 69.6379 181.014 69.0541 182.96 67.8864C184.906 66.7187 186.436 65.1341 187.548 63.1324C188.66 61.075 189.216 58.7397 189.216 56.1264C189.216 53.5687 188.632 51.2889 187.464 49.2872C186.352 47.2855 184.823 45.7287 182.877 44.6166C180.986 43.4489 178.79 42.8651 176.288 42.8651C173.786 42.8651 171.562 43.4489 169.616 44.6166C167.67 45.7287 166.14 47.2855 165.028 49.2872C163.916 51.2889 163.36 53.5687 163.36 56.1264C163.36 58.7397 163.916 61.075 165.028 63.1324C166.14 65.1341 167.67 66.7187 169.616 67.8864C171.562 69.0541 173.786 69.6379 176.288 69.6379Z" fill="#69696F"/>
<path d="M133.738 76.06V19.8455H141.578V76.06H133.738ZM114.054 25.3502V18.1774H161.178V25.3502H114.054Z" fill="#69696F"/>
<mask id="mask0_40_2" style="mask-type:luminance" maskUnits="userSpaceOnUse" x="0" y="0" width="90" height="93">
<path d="M89.6104 69.1243L81.4498 54.7232C81.3458 54.5387 81.2918 54.3301 81.2933 54.1183C81.2948 53.9064 81.3517 53.6986 81.4583 53.5156C81.5649 53.3325 81.7176 53.1805 81.9011 53.0746C82.0846 52.9688 82.2926 52.9128 82.5044 52.9122H83.1154C83.3287 52.9117 83.5382 52.8551 83.7228 52.748C83.9073 52.6409 84.0603 52.487 84.1665 52.302C84.2727 52.1169 84.3282 51.9071 84.3276 51.6938C84.3269 51.4804 84.2701 51.271 84.1627 51.0866L77.8932 40.3149C77.7859 40.1305 77.729 39.921 77.7283 39.7077C77.7277 39.4943 77.7832 39.2846 77.8894 39.0995C77.9956 38.9144 78.1486 38.7606 78.3332 38.6534C78.5177 38.5463 78.7272 38.4897 78.9405 38.4893H78.9915C79.2058 38.4938 79.4174 38.4416 79.605 38.3379C79.7926 38.2341 79.9494 38.0826 80.0595 37.8986C80.1695 37.7147 80.229 37.5049 80.2317 37.2905C80.2345 37.0762 80.1805 36.8649 80.0752 36.6782L69.1653 16.764C69.0595 16.5764 68.9058 16.4202 68.7199 16.3115C68.5339 16.2029 68.3224 16.1456 68.107 16.1456C67.8916 16.1456 67.6801 16.2029 67.4941 16.3115C67.3082 16.4202 67.1545 16.5764 67.0487 16.764L61.9575 25.6811C61.8523 25.8705 61.6983 26.0283 61.5116 26.1382C61.3249 26.2481 61.1122 26.306 60.8956 26.306C60.6789 26.306 60.4662 26.2481 60.2795 26.1382C60.0928 26.0283 59.9388 25.8705 59.8337 25.6811L46.1817 0.617366C46.075 0.42987 45.9205 0.273981 45.734 0.16554C45.5475 0.057098 45.3356 0 45.1198 0C44.9041 0 44.6922 0.057098 44.5057 0.16554C44.3192 0.273981 44.1647 0.42987 44.0579 0.617366L30.2387 24.6628C30.133 24.8504 29.9793 25.0066 29.7933 25.1153C29.6074 25.224 29.3959 25.2813 29.1805 25.2813C28.9651 25.2813 28.7536 25.224 28.5676 25.1153C28.3817 25.0066 28.2279 24.8504 28.1222 24.6628L23.3437 15.7676C23.238 15.5799 23.0842 15.4238 22.8983 15.3151C22.7123 15.2064 22.5008 15.1491 22.2854 15.1491C22.07 15.1491 21.8585 15.2064 21.6726 15.3151C21.4866 15.4238 21.3329 15.5799 21.2272 15.7676L9.78631 35.7036C9.68229 35.8881 9.62834 36.0967 9.62983 36.3086C9.63132 36.5204 9.68819 36.7282 9.7948 36.9113C9.90141 37.0943 10.054 37.2464 10.2376 37.3522C10.4211 37.458 10.6291 37.5141 10.8409 37.5147C11.0543 37.5151 11.2638 37.5717 11.4483 37.6788C11.6328 37.786 11.7859 37.9398 11.8921 38.1249C11.9982 38.3099 12.0538 38.5197 12.0531 38.7331C12.0525 38.9464 11.9956 39.1558 11.8883 39.3402L5.60418 50.1119C5.49686 50.2963 5.44002 50.5058 5.43935 50.7191C5.43869 50.9325 5.49424 51.1423 5.60041 51.3274C5.70658 51.5124 5.85965 51.6662 6.04417 51.7734C6.22869 51.8805 6.43817 51.9371 6.65154 51.9375H7.26249C7.47495 51.9369 7.68388 51.992 7.8684 52.0973C8.05292 52.2026 8.20659 52.3545 8.31406 52.5378C8.42153 52.7211 8.47904 52.9294 8.48085 53.1418C8.48266 53.3543 8.42872 53.5635 8.32439 53.7486L0.156503 68.1497C0.0524785 68.3342 -0.00145952 68.5428 3.00356e-05 68.7546C0.00151959 68.9665 0.0583837 69.1743 0.164993 69.3573C0.271601 69.5404 0.424239 69.6924 0.607752 69.7982C0.791266 69.9041 0.999284 69.9601 1.21114 69.9607H15.1103C15.3222 69.9613 15.5302 70.0173 15.7137 70.1232C15.8972 70.229 16.0499 70.381 16.1565 70.5641C16.2631 70.7472 16.32 70.955 16.3214 71.1668C16.3229 71.3787 16.269 71.5872 16.165 71.7718L12.6447 77.9904C12.5407 78.1749 12.4867 78.3835 12.4882 78.5954C12.4897 78.8072 12.5466 79.015 12.6532 79.198C12.7598 79.3811 12.9124 79.5331 13.096 79.639C13.2795 79.7448 13.4875 79.8008 13.6993 79.8014H37.0974C37.4196 79.8014 37.7285 79.9294 37.9563 80.1572C38.1841 80.385 38.3121 80.6939 38.3121 81.0161V91.3077C38.3121 91.6279 38.4393 91.9351 38.6657 92.1615C38.8921 92.3879 39.1992 92.5151 39.5194 92.5151H50.3784C50.5376 92.5161 50.6954 92.4856 50.8427 92.4253C50.99 92.3651 51.124 92.2763 51.2369 92.1641C51.3497 92.0519 51.4393 91.9184 51.5005 91.7715C51.5616 91.6245 51.593 91.4669 51.593 91.3077V80.9942C51.593 80.6721 51.721 80.3632 51.9488 80.1354C52.1766 79.9076 52.4855 79.7796 52.8077 79.7796H75.5876C75.7994 79.779 76.0074 79.723 76.1909 79.6171C76.3744 79.5113 76.5271 79.3593 76.6337 79.1762C76.7403 78.9932 76.7972 78.7854 76.7987 78.5735C76.8002 78.3617 76.7462 78.1531 76.6422 77.9686L73.682 72.7464C73.5779 72.5618 73.524 72.3533 73.5255 72.1414C73.527 71.9296 73.5838 71.7218 73.6905 71.5387C73.7971 71.3557 73.9497 71.2036 74.1332 71.0978C74.3167 70.9919 74.5247 70.9359 74.7366 70.9353H88.5558C88.7676 70.9347 88.9756 70.8787 89.1592 70.7729C89.3427 70.667 89.4953 70.515 89.6019 70.3319C89.7085 70.1488 89.7654 69.9411 89.7669 69.7292C89.7684 69.5174 89.7144 69.3088 89.6104 69.1243ZM57.819 32.8525L57.7535 32.9761L57.6808 32.8525H57.819Z" fill="white"/>
</mask>
<g mask="url(#mask0_40_2)">
<path d="M94.0544 -3.32474H-3.94562V94.6753H94.0544V-3.32474Z" fill="#26510C"/>
</g>
</svg>
