<svg width="19" height="18" viewBox="0 0 19 18" fill="none" xmlns="http://www.w3.org/2000/svg">
<path d="M0.588989 1.3266C0.683989 1.3266 0.725789 1.3122 0.767589 1.3122C2.51179 1.3122 4.25789 1.3122 6.00209 1.3122C6.06588 1.32028 6.12731 1.34037 6.18278 1.37128C6.23825 1.4022 6.28664 1.44331 6.32509 1.4922C7.66142 3.1554 8.99142 4.8216 10.3151 6.4908C10.355 6.5412 10.4006 6.5862 10.4614 6.6528C10.8034 6.3018 11.1321 5.9652 11.4589 5.6268C12.813 4.2324 14.1689 2.8368 15.5268 1.44C15.5845 1.37354 15.6653 1.32884 15.7548 1.314C16.4027 1.305 17.0525 1.314 17.784 1.314L11.4228 7.8858L18.411 16.6842H18.0823C16.4236 16.6842 14.763 16.6842 13.1043 16.6842C13.0086 16.6904 12.913 16.6723 12.8271 16.6318C12.7413 16.5913 12.6684 16.5298 12.616 16.4538C11.248 14.7246 9.87492 12.999 8.49679 11.277C8.45119 11.2194 8.40179 11.1654 8.33909 11.097L6.87799 12.6C5.61132 13.908 4.34466 15.216 3.07799 16.524C3.00261 16.6058 2.89883 16.6595 2.78539 16.6752C2.17739 16.6878 1.56939 16.6752 0.963289 16.6752C0.916356 16.6698 0.869968 16.6608 0.824589 16.6482L7.37769 9.8676L0.588989 1.3266ZM3.16349 2.4588C3.23759 2.5614 3.28319 2.6262 3.33259 2.6874C4.27752 3.8718 5.21739 5.0562 6.15219 6.2406C8.55886 9.2682 10.9655 12.2958 13.3722 15.3234C13.4199 15.3929 13.4867 15.4488 13.5653 15.4853C13.6439 15.5217 13.7315 15.5373 13.8187 15.5304C14.4001 15.5178 14.9815 15.5304 15.5629 15.5304C15.6351 15.5304 15.7073 15.5304 15.8118 15.5142C15.7434 15.4224 15.6978 15.3558 15.6484 15.2928L9.34989 7.38C8.11109 5.82 6.87166 4.26 5.63159 2.7C5.55939 2.6082 5.45299 2.4768 5.35989 2.4732C4.64549 2.4516 3.92919 2.4588 3.16349 2.4588Z" fill="#69696F"/>
</svg>
